<svg xmlns="http://www.w3.org/2000/svg" width="25" height="24" viewBox="0 0 25 24">
    <g fill="none" fill-rule="evenodd">
        <path fill="#003C7D" d="M19.041 6.96a9.8 9.8 0 0 0-6.162-2.162 1.04 1.04 0 0 0-.997 1.096c.03.533.453.948.997.977 4.169 0 7.582 3.317 7.552 7.434 0 4.087-3.383 7.434-7.583 7.405-4.169 0-7.582-3.318-7.552-7.434 0-1.718.604-3.406 1.722-4.71a1.019 1.019 0 0 0-.151-1.45 1.069 1.069 0 0 0-.665-.238h-.12c-.272.03-.514.178-.695.385a9.354 9.354 0 0 0 1.299 13.328c4.108 3.317 10.21 2.755 13.594-1.273 3.383-4.028 2.9-10.011-1.239-13.358z"/>
        <path fill="#FF7500" d="M11.187 0h-.635A10.077 10.077 0 0 0 3 3.732l7.885 6.071L11.187 0z"/>
    </g>
</svg>
