<svg xmlns="http://www.w3.org/2000/svg" width="144" height="40" viewBox="0 0 144 40">
    <defs>
        <linearGradient id="a" x1="41.264%" x2="74.899%" y1="-3.542%" y2="83.225%">
            <stop offset="9%" stop-color="#FFB015"/>
            <stop offset="55%" stop-color="#FF7500"/>
            <stop offset="99%" stop-color="#DB5500"/>
        </linearGradient>
    </defs>
    <g fill="none" fill-rule="evenodd">
        <path fill="#003C7D" d="M34.76 17.176l.04 12.393c0 .392-.12.784-.4 1.058-.28.314-.72.471-1.12.432h-.08c-.8-.04-1.44-.667-1.44-1.49l-.04-12.432c0-2.157-.6-3.921-1.76-5.294a5.623 5.623 0 0 0-4.44-2h-.04a6.29 6.29 0 0 0-4.8 1.922c-1.2 1.255-1.8 2.98-1.72 5.098L19 29.569c0 .392-.12.784-.4 1.058-.28.275-.68.471-1.12.432-.4 0-.8-.157-1.08-.432-.28-.274-.4-.666-.4-1.058l-.08-12.314c0-2.157-.6-3.922-1.76-5.294a5.623 5.623 0 0 0-4.44-2h-.04c-1.8-.04-3.52.627-4.8 1.843a6.396 6.396 0 0 0-1.84 4.784l.04 13.137c0 .393-.12.785-.4 1.06-.28.274-.68.43-1.08.391h-.08c-.8-.039-1.44-.666-1.44-1.49L0 8.784c0-.431.16-.823.44-1.098.28-.274.68-.392 1.08-.392.4-.04.8.118 1.12.392.28.275.44.667.4 1.098v1.098c.76-.862 1.68-1.53 2.72-2.039a9.099 9.099 0 0 1 3.92-.902 8.56 8.56 0 0 1 4.68 1.255c1.28.784 2.36 1.843 3.12 3.137a8.884 8.884 0 0 1 3.16-3.137 9.88 9.88 0 0 1 4.84-1.255c1.68-.039 3.36.432 4.8 1.294 1.4.902 2.56 2.157 3.28 3.647.8 1.647 1.2 3.451 1.2 5.294zm30.6 1.844l.04 10.431c0 .392-.12.784-.4 1.059-.28.274-.68.431-1.12.431h-.08c-.8 0-1.48-.666-1.44-1.49v-2.706c-.96 1.294-2.2 2.392-3.64 3.137A12.536 12.536 0 0 1 53 31.255h-.04c-2.2.04-4.4-.51-6.32-1.569a11.747 11.747 0 0 1-4.52-4.392c-1.08-1.882-1.68-4-1.64-6.196-.04-2.196.52-4.353 1.6-6.235a11.54 11.54 0 0 1 4.44-4.392 13.34 13.34 0 0 1 12.68-.04 11.747 11.747 0 0 1 4.52 4.393c1.08 1.882 1.64 4 1.64 6.196zm-3.04.039c0-1.686-.4-3.334-1.24-4.784-.8-1.412-1.96-2.55-3.36-3.373a9.154 9.154 0 0 0-4.76-1.216h-.04c-3.4-.039-6.52 1.765-8.16 4.667-.84 1.45-1.24 3.137-1.24 4.784 0 1.687.44 3.334 1.28 4.785.8 1.411 2 2.549 3.4 3.333 1.44.823 3.08 1.216 4.76 1.216H53a9.73 9.73 0 0 0 4.8-1.255c1.4-.824 2.56-1.961 3.36-3.373a9.527 9.527 0 0 0 1.16-4.784zM84.44 7.098a7.316 7.316 0 0 0-2.6-.353c-1.56 0-3.08.392-4.4 1.177a9.304 9.304 0 0 0-2.92 2.627v-2.04c.04-.744-.56-1.411-1.32-1.45H73c-.4 0-.8.117-1.08.392-.28.274-.44.667-.44 1.098l.08 20.902c-.04.784.64 1.451 1.44 1.49h.08c.4.04.8-.157 1.12-.431.28-.275.4-.667.4-1.059l-.04-13.059a6.142 6.142 0 0 1 .92-3.45 6.415 6.415 0 0 1 2.6-2.432 8.46 8.46 0 0 1 3.8-.902c.36 0 .68.04 1.04.078.36.04.72.079 1.04.079.32 0 .6-.079.88-.236.24-.196.44-.47.48-.784.2-.706-.2-1.412-.88-1.647zm28.08 11.765l.04 8.431c.04 2.196-.52 4.392-1.56 6.353-2.08 3.843-6.2 6.196-10.6 6.196h-.08c-2.12.04-4.2-.392-6.08-1.255a13.203 13.203 0 0 1-4.44-3.49c-.24-.274-.4-.627-.4-.98 0-.393.2-.745.52-.98.24-.197.56-.314.88-.314.52 0 1 .235 1.28.627a9.596 9.596 0 0 0 3.52 2.627c1.48.628 3.12.98 4.72.942 1.68 0 3.28-.432 4.72-1.295a8.96 8.96 0 0 0 3.28-3.49c.8-1.53 1.24-3.255 1.2-4.98v-1.098a9.581 9.581 0 0 1-3.48 3.412c-1.8 1.02-3.84 1.529-5.92 1.49-2.24.039-4.44-.47-6.44-1.53-1.88-1.02-3.4-2.51-4.44-4.313a12.828 12.828 0 0 1-1.64-6.314c-.04-2.196.52-4.353 1.64-6.275a11.923 11.923 0 0 1 4.48-4.392 13.15 13.15 0 0 1 6.32-1.608c2.24-.039 4.48.51 6.44 1.608 1.84 1.02 3.4 2.51 4.44 4.314 1.08 1.96 1.64 4.118 1.6 6.314zm-3.04 0c.04-1.687-.4-3.373-1.2-4.902-.76-1.412-1.96-2.55-3.36-3.334-1.48-.784-3.12-1.215-4.8-1.176h-.04c-1.72-.04-3.4.392-4.88 1.216A8.657 8.657 0 0 0 91.88 14c-.8 1.49-1.24 3.176-1.2 4.902-.04 1.686.4 3.373 1.2 4.863.8 1.372 1.96 2.549 3.36 3.294 1.48.784 3.16 1.216 4.84 1.176 1.68 0 3.36-.392 4.84-1.215 1.4-.785 2.56-1.922 3.32-3.334.88-1.45 1.28-3.137 1.24-4.823zm29.72-9.647a12.975 12.975 0 0 0-8.16-2.863c-.76.04-1.36.667-1.32 1.45.04.707.6 1.256 1.32 1.295 5.52 0 10.04 4.392 10 9.843 0 5.412-4.48 9.843-10.04 9.804-5.52 0-10.04-4.392-10-9.843 0-2.275.8-4.51 2.28-6.235.48-.589.4-1.451-.2-1.922a1.415 1.415 0 0 0-.88-.314h-.16c-.36.04-.68.236-.92.51a12.385 12.385 0 0 0 1.72 17.647c5.44 4.392 13.52 3.647 18-1.686s3.84-13.255-1.64-17.686z"/>
        <path fill="url(#a)" fill-rule="nonzero" d="M128.8 0h-.84a13.343 13.343 0 0 0-10 4.941l10.44 8.04L128.8 0z"/>
    </g>
</svg>
